<?xml version="1.0" standalone="no"?>
<!DOCTYPE svg PUBLIC "-//W3C//DTD SVG 20010904//EN"
 "http://www.w3.org/TR/2001/REC-SVG-20010904/DTD/svg10.dtd">
<svg version="1.0" xmlns="http://www.w3.org/2000/svg"
 width="1204.000000pt" height="1006.000000pt" viewBox="0 0 1204.000000 1006.000000"
 preserveAspectRatio="xMidYMid meet">

<g transform="translate(0.000000,1006.000000) scale(0.100000,-0.100000)"
fill="#000000" stroke="none">
<path d="M5080 9213 c-19 -1 -98 -8 -175 -14 -77 -6 -151 -13 -165 -14 -14 -2
-59 -6 -100 -10 -41 -4 -94 -11 -117 -16 -24 -5 -73 -14 -110 -19 -38 -6 -80
-12 -94 -15 -14 -2 -53 -10 -85 -19 -32 -8 -72 -17 -89 -20 -134 -24 -576
-178 -730 -254 -33 -16 -76 -37 -95 -46 -19 -8 -42 -20 -50 -25 -8 -6 -33 -19
-55 -29 -53 -25 -161 -84 -221 -121 -27 -17 -59 -35 -72 -41 -12 -5 -31 -18
-42 -28 -11 -10 -33 -25 -48 -33 -15 -8 -31 -20 -35 -26 -4 -7 -13 -13 -18
-13 -6 0 -53 -32 -106 -71 l-95 -71 6 -47 c3 -25 8 -56 10 -68 18 -93 25 -708
14 -1181 l-7 -263 -32 -37 c-44 -51 -79 -82 -174 -154 -5 -4 -23 -18 -40 -32
-79 -62 -292 -199 -399 -255 -66 -35 -127 -67 -135 -72 -39 -21 -264 -111
-306 -122 -11 -3 -67 -19 -125 -35 -99 -28 -177 -47 -245 -58 -16 -3 -131 -22
-255 -43 -124 -21 -226 -34 -228 -29 -2 4 -11 8 -19 8 -27 0 -12 -69 87 -385
37 -121 92 -231 148 -301 51 -62 131 -111 232 -141 46 -13 60 -23 76 -52 46
-81 78 -138 95 -166 10 -16 30 -52 45 -80 15 -27 36 -63 48 -80 11 -16 26 -37
31 -47 53 -92 92 -151 102 -155 7 -3 13 -10 13 -17 0 -6 13 -26 28 -43 15 -18
43 -54 62 -80 19 -25 61 -73 92 -106 32 -33 59 -63 60 -66 6 -14 180 -162 201
-172 12 -5 58 -31 102 -58 80 -47 80 -47 125 -35 143 41 334 78 525 103 75 10
101 13 230 25 28 3 97 8 155 12 58 3 114 8 125 10 26 6 660 5 700 -1 17 -2 68
-6 115 -10 47 -3 101 -8 120 -11 19 -2 55 -6 80 -9 25 -2 101 -13 170 -25 69
-12 130 -23 137 -24 7 -1 15 -5 18 -8 7 -7 24 -107 30 -173 3 -27 8 -77 11
-110 10 -95 12 -464 3 -535 -40 -302 -54 -390 -84 -504 -58 -222 -154 -462
-247 -614 -21 -34 -38 -64 -38 -66 0 -7 -113 -170 -132 -190 -10 -11 -18 -23
-18 -27 0 -4 -6 -14 -13 -21 -7 -7 -38 -47 -69 -88 -74 -99 -105 -127 -153
-139 l-40 -9 57 -1 c71 -1 119 15 277 91 176 85 207 105 320 200 l74 62 -5
-105 c-3 -69 -10 -116 -21 -138 l-17 -33 38 7 c120 22 287 159 434 357 28 37
52 67 54 65 2 -2 -3 -45 -11 -95 -8 -51 -19 -120 -24 -154 -5 -35 -12 -71 -16
-80 -14 -35 16 -17 86 51 l70 70 -5 -42 c-11 -92 -18 -126 -42 -232 -14 -60
-30 -130 -35 -155 -37 -189 -176 -560 -224 -600 -8 -7 -15 -17 -15 -22 0 -6 7
-5 15 2 9 8 15 8 15 2 0 -17 69 6 116 39 61 42 211 198 238 247 5 10 12 19 15
22 22 19 148 204 156 230 7 21 7 21 23 3 21 -23 52 -81 52 -95 0 -5 9 -22 19
-37 11 -15 50 -86 87 -157 36 -71 94 -183 129 -249 34 -66 85 -173 114 -237
47 -104 71 -140 71 -108 0 6 14 41 31 78 17 37 42 92 56 122 38 84 47 104 118
254 36 76 65 142 65 147 0 5 3 9 8 9 4 0 13 14 21 31 22 50 172 269 212 310 9
9 19 23 22 30 6 18 25 -5 69 -86 83 -154 164 -343 188 -442 13 -51 23 -54 40
-10 34 85 123 273 163 342 28 50 135 203 147 210 11 7 90 -117 220 -345 91
-160 275 -574 315 -707 10 -35 21 -63 24 -63 3 0 16 22 28 48 12 26 58 115
102 197 73 136 149 303 177 390 2 6 18 53 36 106 18 54 35 103 37 110 2 8 10
37 18 64 28 95 80 319 88 385 8 56 14 93 19 119 3 13 6 51 7 83 2 57 17 76 36
45 19 -32 159 -113 271 -158 117 -47 300 -77 309 -51 3 6 -2 12 -10 12 -8 0
-17 14 -21 33 -8 45 -24 117 -32 147 -10 38 -14 291 -5 285 13 -8 60 -108 67
-143 l6 -32 29 17 c46 27 87 132 87 225 0 29 1 56 1 60 1 5 20 -10 44 -33 62
-60 167 -106 189 -83 4 3 -4 21 -17 40 -28 41 -55 128 -62 198 -5 47 -4 49 19
43 84 -19 425 -178 448 -209 3 -4 17 -12 30 -18 14 -6 34 -16 45 -23 53 -32
107 -65 182 -114 45 -29 84 -53 86 -53 3 0 45 -26 93 -59 111 -73 190 -143
198 -176 4 -14 11 -25 17 -25 6 0 9 6 6 14 -3 8 1 17 9 20 28 11 6 191 -45
366 -38 131 -93 295 -102 304 -5 6 -9 17 -9 25 0 9 -6 28 -14 43 -8 14 -19 43
-26 65 -7 21 -17 47 -23 58 -6 11 -12 25 -13 30 -3 17 -95 219 -106 233 -6 6
-8 12 -4 12 3 0 -12 35 -34 77 -42 80 -49 102 -27 85 6 -5 35 -13 62 -17 28
-5 57 -10 65 -11 8 -2 40 -6 70 -10 30 -3 57 -8 60 -9 3 -2 46 -6 95 -10 50
-4 104 -9 120 -12 17 -2 132 -6 257 -9 173 -4 254 -1 340 11 199 27 503 109
584 158 93 55 104 62 104 70 0 4 -33 7 -74 7 -40 0 -98 5 -127 10 -30 6 -65
13 -79 15 -14 3 -36 7 -50 10 -13 2 -42 7 -65 10 -48 7 -230 60 -300 87 -27
11 -59 24 -70 28 -114 45 -337 159 -442 224 -205 128 -259 172 -438 351 -99
99 -187 189 -195 200 -8 11 -49 63 -91 115 -41 52 -86 111 -99 130 -13 19 -27
37 -30 40 -9 7 -112 167 -140 218 -13 23 -27 42 -32 42 -4 0 -8 4 -8 9 0 10
-45 89 -101 176 -14 22 -80 148 -147 280 -137 272 -192 389 -256 542 -14 35
-37 87 -50 115 -37 85 -66 158 -94 238 -14 41 -30 78 -35 81 -5 3 -9 10 -9 15
0 5 -4 19 -9 32 -5 13 -9 28 -9 33 0 5 -9 28 -20 52 -31 66 -106 281 -162 462
-12 39 -27 84 -34 100 -7 17 -18 53 -25 80 -6 28 -17 59 -22 70 -6 11 -14 36
-18 55 -3 19 -14 55 -22 80 -8 25 -25 79 -37 120 -12 41 -25 84 -30 95 -38 82
-146 535 -191 800 -13 78 -24 114 -37 125 -81 66 -263 193 -427 298 -44 28
-84 55 -90 59 -28 23 -113 73 -123 73 -7 0 -12 4 -12 8 0 9 -112 62 -130 62
-5 0 -10 5 -10 10 0 6 -6 10 -13 10 -8 0 -50 18 -94 39 -44 22 -100 46 -124
55 -24 8 -69 24 -99 36 -131 51 -472 161 -555 179 -127 28 -235 50 -270 55
-209 29 -300 34 -575 33 -146 0 -281 -2 -300 -4z m460 -1242 c-7 -36 -14 -77
-15 -91 -2 -14 -7 -59 -11 -100 -11 -99 -11 -578 -1 -655 5 -33 10 -71 12 -85
1 -14 8 -47 15 -75 7 -27 14 -57 15 -65 1 -8 5 -22 8 -30 4 -8 18 -51 33 -95
32 -98 89 -217 148 -308 24 -38 50 -82 56 -98 7 -16 16 -29 21 -29 5 0 9 -7 9
-15 0 -9 7 -18 15 -21 8 -3 17 -16 21 -27 3 -12 12 -29 19 -37 25 -28 185
-338 238 -460 44 -101 79 -215 112 -367 24 -111 30 -159 40 -323 10 -144 21
-178 80 -235 28 -27 78 -63 110 -79 53 -26 73 -30 174 -34 173 -7 313 29 561
145 150 70 276 176 359 303 20 30 38 57 41 60 3 3 11 16 18 30 7 14 21 39 31
55 96 149 143 339 143 570 0 72 -5 157 -11 190 -39 218 -49 443 -30 685 15
196 19 234 29 264 6 16 10 39 10 52 0 13 5 26 11 30 14 8 10 -91 -17 -426 -12
-152 -3 -322 32 -580 11 -89 14 -132 15 -230 1 -101 -20 -256 -43 -330 -27
-84 -62 -168 -84 -202 -13 -21 -24 -42 -24 -48 0 -5 -4 -10 -10 -10 -5 0 -10
-5 -10 -10 0 -6 -26 -49 -57 -97 -68 -103 -202 -243 -233 -243 -6 0 -10 -4
-10 -9 0 -6 -46 -32 -102 -59 -147 -71 -185 -87 -253 -107 -33 -9 -78 -23
-100 -30 -89 -29 -247 -41 -335 -25 -62 11 -194 75 -243 119 -46 39 -73 134
-81 281 -3 52 -8 109 -11 125 -3 17 -10 59 -16 95 -17 103 -68 270 -125 410
-24 59 -112 244 -134 280 -5 8 -25 44 -46 80 -20 36 -45 79 -54 95 -35 60
-117 192 -158 253 -23 35 -42 70 -42 78 0 8 -4 14 -9 14 -5 0 -21 30 -36 68
-52 130 -85 217 -89 232 -1 8 -8 35 -15 59 -7 24 -14 60 -16 80 -2 20 -9 68
-17 106 -14 77 -18 535 -5 660 17 167 36 268 60 324 l11 26 4 -34 c2 -19 -2
-64 -8 -100z m-2264 -558 c74 -35 172 -133 252 -252 34 -51 62 -98 62 -103 0
-20 -48 -143 -81 -206 -17 -35 -57 -89 -88 -121 -95 -97 -186 -158 -131 -88
l21 26 -22 43 c-32 63 -74 219 -89 330 -12 85 -11 111 4 210 9 62 19 122 22
133 4 16 -2 25 -28 37 l-33 17 27 0 c15 1 53 -11 84 -26z"/>
</g>
</svg>
